<svg xmlns="http://www.w3.org/2000/svg" xmlns:xlink="http://www.w3.org/1999/xlink" xmlns:inkscape="http://www.inkscape.org/namespaces/inkscape" version="1.1" width="35.149" height="35.149" viewBox="0 0 35.149 35.149">
<path transform="matrix(1,0,0,-1,14.173,24.943999)" stroke-width=".59776" stroke-linecap="round" stroke-linejoin="round" fill="none" stroke="#000000" d="M-5.66925 3.40158V17.00781H11.33856C11.33856 10.50583 7.63028 4.57141 1.78644 1.72139"/>
<path transform="matrix(1,0,0,-1,14.173,24.943999)" d="M-2.26765 0C-2.26765 1.87865-3.79059 3.40158-5.66925 3.40158-7.54791 3.40158-9.07085 1.87865-9.07085 0-9.07085-1.87865-7.54791-3.40158-5.66925-3.40158-3.79059-3.40158-2.26765-1.87865-2.26765 0ZM-5.66925 0"/>
<path transform="matrix(1,0,0,-1,14.173,24.943999)" stroke-width=".59776" stroke-linecap="round" stroke-linejoin="round" fill="none" stroke="#000000" d="M-2.26765 0C-2.26765 1.87865-3.79059 3.40158-5.66925 3.40158-7.54791 3.40158-9.07085 1.87865-9.07085 0-9.07085-1.87865-7.54791-3.40158-5.66925-3.40158-3.79059-3.40158-2.26765-1.87865-2.26765 0ZM-5.66925 0"/>
<path transform="matrix(1,0,0,-1,14.173,24.943999)" stroke-width=".59776" stroke-linecap="round" stroke-linejoin="round" fill="none" stroke="#000000" d="M6.49057 6.80421 8.22777 5.34659"/>
<path transform="matrix(1,0,0,-1,14.173,24.943999)" stroke-width=".59776" stroke-linecap="round" stroke-linejoin="round" fill="none" stroke="#000000" d="M5.3575 5.58916 6.93279 3.95782"/>
<path transform="matrix(1,0,0,-1,14.173,24.943999)" stroke-width=".59776" stroke-linecap="round" stroke-linejoin="round" fill="none" stroke="#000000" d="M0 2.26765V17.00781H17.00781C17.00781 8.53012 10.76198 1.34534 2.36707 .16557"/>
<path transform="matrix(1,0,0,-1,14.173,24.943999)" stroke-width=".59776" stroke-linecap="round" stroke-linejoin="round" fill="none" stroke="#000000" d="M2.26765 0C2.26765 1.2524 1.2524 2.26765 0 2.26765-1.2524 2.26765-2.26765 1.2524-2.26765 0-2.26765-1.2524-1.2524-2.26765 0-2.26765 1.2524-2.26765 2.26765-1.2524 2.26765 0ZM0 0"/>
<path transform="matrix(1,0,0,-1,14.173,24.943999)" stroke-width=".59776" stroke-linecap="round" stroke-linejoin="round" fill="none" stroke="#000000" d="M14.26694 10.04976 16.3052 9.05582"/>
<path transform="matrix(1,0,0,-1,14.173,24.943999)" stroke-width=".59776" stroke-linecap="round" stroke-linejoin="round" fill="none" stroke="#000000" d="M13.54825 8.73814 15.48373 7.55684"/>
</svg>
